<?xml version="1.0" encoding="utf-8"?>
<!-- Svg Vector Icons : http://www.onlinewebfonts.com/icon -->
<!DOCTYPE svg PUBLIC "-//W3C//DTD SVG 1.1//EN" "http://www.w3.org/Graphics/SVG/1.1/DTD/svg11.dtd">
<svg version="1.1" xmlns="http://www.w3.org/2000/svg" xmlns:xlink="http://www.w3.org/1999/xlink" x="0px" y="0px" viewBox="0 0 256 256" enable-background="new 0 0 256 256" xml:space="preserve">
<metadata> Svg Vector Icons : http://www.onlinewebfonts.com/icon </metadata>
<g><g><path fill="#000000" d="M128,10C62.8,10,10,62.8,10,128c0,65.2,52.8,118,118,118c65.2,0,118-52.8,118-118C246,62.8,193.2,10,128,10z M128,234.2c-58.7,0-106.2-47.5-106.2-106.2C21.8,69.4,69.3,21.8,128,21.8c58.7,0,106.2,47.6,106.2,106.2C234.2,186.7,186.7,234.2,128,234.2z"/><path fill="#000000" d="M68.7,88.8h40v78.6h-40V88.8L68.7,88.8z"/><path fill="#000000" d="M147.3,88.8h40v78.6h-40V88.8L147.3,88.8z"/></g></g>
</svg>